# xmcd
#
# Track frame offsets: 
#        150
#        18104
#        28287
#        49660
#        68181
#        87287
#        102429
#        122677
#        139798
#        161973
#        179905
#        200248
#
# Disc length: 2916 seconds
#
# Revision: 0
# Processed by: cddbd v1.5.2PL0 Copyright (c) Steve Scherf et al.
# Submitted via: ExactAudioCopy v0.99pb5
#
DISCID=b30b620c
DTITLE=The JW Jones Blues Band - Midnight Memphis Sun
DYEAR=2010
DGENRE=Blues
TTITLE0=Off The Market
TTITLE1=Love Grows Cold
TTITLE2=Kissin' In Memphis
TTITLE3=Cuts Like A Knife
TTITLE4=Born Operator
TTITLE5=Burnt Child
TTITLE6=Right On Time
TTITLE7=I Don't Go For That
TTITLE8=Mean Streak
TTITLE9=Make A Move
TTITLE10=Howlin' With Hubert
TTITLE11=Games
EXTD=
EXTT0=
EXTT1=
EXTT2=
EXTT3=
EXTT4=
EXTT5=
EXTT6=
EXTT7=
EXTT8=
EXTT9=
EXTT10=
EXTT11=
PLAYORDER=
